<mxfile host="app.diagrams.net" modified="2020-05-15T07:27:21.627Z" agent="5.0 (Windows)" etag="Jj0TS_SvvdCclHkpLqfD" version="13.1.1" type="github">
  <diagram id="9tmcB_nWFTzBjbHdpLqI" name="Page-1">
    <mxGraphModel dx="1254" dy="801" grid="1" gridSize="10" guides="1" tooltips="1" connect="1" arrows="1" fold="1" page="1" pageScale="1" pageWidth="850" pageHeight="1100" math="0" shadow="0">
      <root>
        <mxCell id="0" />
        <mxCell id="1" parent="0" />
        <mxCell id="AUhPjbmYWU5Y2-8NlCF0-2" value="" style="endArrow=none;dashed=1;html=1;entryX=1;entryY=1;entryDx=0;entryDy=0;exitX=0;exitY=0;exitDx=0;exitDy=0;" edge="1" parent="1" source="AUhPjbmYWU5Y2-8NlCF0-25" target="AUhPjbmYWU5Y2-8NlCF0-13">
          <mxGeometry width="50" height="50" relative="1" as="geometry">
            <mxPoint x="40" y="210" as="sourcePoint" />
            <mxPoint x="90" y="160" as="targetPoint" />
          </mxGeometry>
        </mxCell>
        <mxCell id="AUhPjbmYWU5Y2-8NlCF0-3" value="" style="group;fillColor=#f5f5f5;strokeColor=#666666;fontColor=#333333;" vertex="1" connectable="0" parent="1">
          <mxGeometry x="280" y="255" width="110" height="55" as="geometry" />
        </mxCell>
        <mxCell id="AUhPjbmYWU5Y2-8NlCF0-4" value="" style="group;fillColor=#f5f5f5;strokeColor=#666666;fontColor=#333333;" vertex="1" connectable="0" parent="AUhPjbmYWU5Y2-8NlCF0-3">
          <mxGeometry width="110" height="55" as="geometry" />
        </mxCell>
        <mxCell id="AUhPjbmYWU5Y2-8NlCF0-5" value="" style="group;fillColor=#f5f5f5;strokeColor=#666666;fontColor=#333333;" vertex="1" connectable="0" parent="AUhPjbmYWU5Y2-8NlCF0-4">
          <mxGeometry width="110" height="55" as="geometry" />
        </mxCell>
        <mxCell id="AUhPjbmYWU5Y2-8NlCF0-6" value="" style="rounded=0;whiteSpace=wrap;html=1;fillColor=#f5f5f5;strokeColor=#666666;fontColor=#333333;" vertex="1" parent="AUhPjbmYWU5Y2-8NlCF0-5">
          <mxGeometry width="110" height="55" as="geometry" />
        </mxCell>
        <mxCell id="AUhPjbmYWU5Y2-8NlCF0-7" value="" style="endArrow=none;html=1;exitX=0.665;exitY=0;exitDx=0;exitDy=0;entryX=0.665;entryY=1.017;entryDx=0;entryDy=0;exitPerimeter=0;entryPerimeter=0;fillColor=#f5f5f5;strokeColor=#666666;" edge="1" parent="AUhPjbmYWU5Y2-8NlCF0-5" source="AUhPjbmYWU5Y2-8NlCF0-6" target="AUhPjbmYWU5Y2-8NlCF0-6">
          <mxGeometry width="50" height="50" relative="1" as="geometry">
            <mxPoint x="232.9411764705882" y="174.16666666666669" as="sourcePoint" />
            <mxPoint x="265.29411764705884" y="128.33333333333334" as="targetPoint" />
            <Array as="points" />
          </mxGeometry>
        </mxCell>
        <mxCell id="AUhPjbmYWU5Y2-8NlCF0-8" value="&lt;div&gt;Download&lt;/div&gt;" style="text;html=1;strokeColor=none;fillColor=none;align=center;verticalAlign=middle;whiteSpace=wrap;rounded=0;fontColor=#333333;" vertex="1" parent="AUhPjbmYWU5Y2-8NlCF0-5">
          <mxGeometry x="19.411764705882355" y="18.333333333333336" width="25.882352941176467" height="18.333333333333336" as="geometry" />
        </mxCell>
        <mxCell id="AUhPjbmYWU5Y2-8NlCF0-9" value="Udfør" style="text;html=1;strokeColor=none;fillColor=none;align=center;verticalAlign=middle;whiteSpace=wrap;rounded=0;fontColor=#333333;" vertex="1" parent="AUhPjbmYWU5Y2-8NlCF0-5">
          <mxGeometry x="77.64705882352942" y="18.333333333333336" width="25.882352941176467" height="18.333333333333336" as="geometry" />
        </mxCell>
        <mxCell id="AUhPjbmYWU5Y2-8NlCF0-10" value="" style="group;fillColor=#f5f5f5;strokeColor=#666666;fontColor=#333333;" vertex="1" connectable="0" parent="1">
          <mxGeometry x="390" y="350" width="110" height="55" as="geometry" />
        </mxCell>
        <mxCell id="AUhPjbmYWU5Y2-8NlCF0-11" value="" style="group;fillColor=#f5f5f5;strokeColor=#666666;fontColor=#333333;" vertex="1" connectable="0" parent="AUhPjbmYWU5Y2-8NlCF0-10">
          <mxGeometry width="110" height="55" as="geometry" />
        </mxCell>
        <mxCell id="AUhPjbmYWU5Y2-8NlCF0-12" value="" style="group;fillColor=#f5f5f5;strokeColor=#666666;fontColor=#333333;" vertex="1" connectable="0" parent="AUhPjbmYWU5Y2-8NlCF0-11">
          <mxGeometry width="110" height="55" as="geometry" />
        </mxCell>
        <mxCell id="AUhPjbmYWU5Y2-8NlCF0-13" value="" style="rounded=0;whiteSpace=wrap;html=1;fillColor=#f5f5f5;strokeColor=#666666;fontColor=#333333;" vertex="1" parent="AUhPjbmYWU5Y2-8NlCF0-12">
          <mxGeometry width="110" height="55" as="geometry" />
        </mxCell>
        <mxCell id="AUhPjbmYWU5Y2-8NlCF0-14" value="" style="endArrow=none;html=1;exitX=0.665;exitY=0;exitDx=0;exitDy=0;entryX=0.665;entryY=1.017;entryDx=0;entryDy=0;exitPerimeter=0;entryPerimeter=0;fillColor=#f5f5f5;strokeColor=#666666;" edge="1" parent="AUhPjbmYWU5Y2-8NlCF0-12" source="AUhPjbmYWU5Y2-8NlCF0-13" target="AUhPjbmYWU5Y2-8NlCF0-13">
          <mxGeometry width="50" height="50" relative="1" as="geometry">
            <mxPoint x="232.9411764705882" y="174.16666666666669" as="sourcePoint" />
            <mxPoint x="265.29411764705884" y="128.33333333333334" as="targetPoint" />
            <Array as="points" />
          </mxGeometry>
        </mxCell>
        <mxCell id="AUhPjbmYWU5Y2-8NlCF0-15" value="&lt;div&gt;Download&lt;/div&gt;" style="text;html=1;align=center;verticalAlign=middle;whiteSpace=wrap;rounded=0;fillColor=none;strokeColor=none;fontColor=#333333;" vertex="1" parent="AUhPjbmYWU5Y2-8NlCF0-12">
          <mxGeometry x="19.41" y="18.33" width="30.59" height="18.33" as="geometry" />
        </mxCell>
        <mxCell id="AUhPjbmYWU5Y2-8NlCF0-16" value="Udfør" style="text;html=1;align=center;verticalAlign=middle;whiteSpace=wrap;rounded=0;fillColor=none;strokeColor=none;fontColor=#333333;" vertex="1" parent="AUhPjbmYWU5Y2-8NlCF0-12">
          <mxGeometry x="77.64705882352942" y="18.333333333333336" width="25.882352941176467" height="18.333333333333336" as="geometry" />
        </mxCell>
        <mxCell id="AUhPjbmYWU5Y2-8NlCF0-17" value="" style="rounded=0;whiteSpace=wrap;html=1;fillColor=#f5f5f5;strokeColor=#666666;fontColor=#333333;" vertex="1" parent="1">
          <mxGeometry x="390" y="420" width="260" height="55" as="geometry" />
        </mxCell>
        <mxCell id="AUhPjbmYWU5Y2-8NlCF0-18" value="" style="endArrow=none;html=1;exitX=0.75;exitY=0;exitDx=0;exitDy=0;entryX=0.75;entryY=1;entryDx=0;entryDy=0;fillColor=#f5f5f5;strokeColor=#666666;" edge="1" parent="1">
          <mxGeometry width="50" height="50" relative="1" as="geometry">
            <mxPoint x="610" y="420" as="sourcePoint" />
            <mxPoint x="610" y="475" as="targetPoint" />
            <Array as="points" />
          </mxGeometry>
        </mxCell>
        <mxCell id="AUhPjbmYWU5Y2-8NlCF0-19" value="&lt;div&gt;Download&lt;/div&gt;" style="text;html=1;align=center;verticalAlign=middle;whiteSpace=wrap;rounded=0;fillColor=none;strokeColor=none;fontColor=#333333;" vertex="1" parent="1">
          <mxGeometry x="390" y="438.33" width="70" height="18.33" as="geometry" />
        </mxCell>
        <mxCell id="AUhPjbmYWU5Y2-8NlCF0-20" value="Udfør" style="text;html=1;align=center;verticalAlign=middle;whiteSpace=wrap;rounded=0;fillColor=none;strokeColor=none;fontColor=#333333;" vertex="1" parent="1">
          <mxGeometry x="612.22" y="420" width="37.78" height="60" as="geometry" />
        </mxCell>
        <mxCell id="AUhPjbmYWU5Y2-8NlCF0-21" value="" style="endArrow=none;html=1;exitX=0.25;exitY=1;exitDx=0;exitDy=0;entryX=0.25;entryY=0;entryDx=0;entryDy=0;fillColor=#f5f5f5;strokeColor=#666666;" edge="1" parent="1">
          <mxGeometry width="50" height="50" relative="1" as="geometry">
            <mxPoint x="463" y="475" as="sourcePoint" />
            <mxPoint x="463" y="420" as="targetPoint" />
          </mxGeometry>
        </mxCell>
        <mxCell id="AUhPjbmYWU5Y2-8NlCF0-22" value="" style="group;fillColor=#ffffff;strokeColor=#000000;fontColor=#333333;" vertex="1" connectable="0" parent="1">
          <mxGeometry x="500" y="520" width="110" height="55" as="geometry" />
        </mxCell>
        <mxCell id="AUhPjbmYWU5Y2-8NlCF0-23" value="" style="group;fillColor=#f5f5f5;strokeColor=#666666;fontColor=#333333;" vertex="1" connectable="0" parent="AUhPjbmYWU5Y2-8NlCF0-22">
          <mxGeometry width="110" height="55" as="geometry" />
        </mxCell>
        <mxCell id="AUhPjbmYWU5Y2-8NlCF0-24" value="" style="group;fillColor=#f5f5f5;strokeColor=#666666;fontColor=#333333;" vertex="1" connectable="0" parent="AUhPjbmYWU5Y2-8NlCF0-23">
          <mxGeometry width="110" height="55" as="geometry" />
        </mxCell>
        <mxCell id="AUhPjbmYWU5Y2-8NlCF0-25" value="" style="rounded=0;whiteSpace=wrap;html=1;fillColor=#f5f5f5;strokeColor=#666666;fontColor=#333333;" vertex="1" parent="AUhPjbmYWU5Y2-8NlCF0-24">
          <mxGeometry width="110" height="55" as="geometry" />
        </mxCell>
        <mxCell id="AUhPjbmYWU5Y2-8NlCF0-26" value="" style="endArrow=none;html=1;exitX=0.665;exitY=0;exitDx=0;exitDy=0;entryX=0.665;entryY=1.017;entryDx=0;entryDy=0;exitPerimeter=0;entryPerimeter=0;fillColor=#f5f5f5;strokeColor=#666666;" edge="1" parent="AUhPjbmYWU5Y2-8NlCF0-24" source="AUhPjbmYWU5Y2-8NlCF0-25" target="AUhPjbmYWU5Y2-8NlCF0-25">
          <mxGeometry width="50" height="50" relative="1" as="geometry">
            <mxPoint x="232.9411764705882" y="174.16666666666669" as="sourcePoint" />
            <mxPoint x="265.29411764705884" y="128.33333333333334" as="targetPoint" />
            <Array as="points" />
          </mxGeometry>
        </mxCell>
        <mxCell id="AUhPjbmYWU5Y2-8NlCF0-27" value="&lt;div&gt;Download&lt;/div&gt;" style="text;html=1;strokeColor=none;fillColor=none;align=center;verticalAlign=middle;whiteSpace=wrap;rounded=0;fontColor=#333333;" vertex="1" parent="AUhPjbmYWU5Y2-8NlCF0-24">
          <mxGeometry x="19.411764705882355" y="18.333333333333336" width="25.882352941176467" height="18.333333333333336" as="geometry" />
        </mxCell>
        <mxCell id="AUhPjbmYWU5Y2-8NlCF0-28" value="Udfør" style="text;html=1;strokeColor=none;fillColor=none;align=center;verticalAlign=middle;whiteSpace=wrap;rounded=0;fontColor=#333333;" vertex="1" parent="AUhPjbmYWU5Y2-8NlCF0-24">
          <mxGeometry x="77.64705882352942" y="18.333333333333336" width="25.882352941176467" height="18.333333333333336" as="geometry" />
        </mxCell>
        <mxCell id="AUhPjbmYWU5Y2-8NlCF0-29" value="" style="endArrow=none;dashed=1;html=1;entryX=1;entryY=1;entryDx=0;entryDy=0;exitX=0;exitY=0;exitDx=0;exitDy=0;" edge="1" parent="1" source="AUhPjbmYWU5Y2-8NlCF0-13" target="AUhPjbmYWU5Y2-8NlCF0-6">
          <mxGeometry width="50" height="50" relative="1" as="geometry">
            <mxPoint x="410" y="380" as="sourcePoint" />
            <mxPoint x="460" y="330" as="targetPoint" />
          </mxGeometry>
        </mxCell>
        <mxCell id="AUhPjbmYWU5Y2-8NlCF0-30" value="" style="endArrow=none;dashed=1;html=1;entryX=0;entryY=1;entryDx=0;entryDy=0;exitX=0;exitY=0;exitDx=0;exitDy=0;" edge="1" parent="1" source="AUhPjbmYWU5Y2-8NlCF0-17" target="AUhPjbmYWU5Y2-8NlCF0-13">
          <mxGeometry width="50" height="50" relative="1" as="geometry">
            <mxPoint x="410" y="380" as="sourcePoint" />
            <mxPoint x="460" y="330" as="targetPoint" />
          </mxGeometry>
        </mxCell>
        <mxCell id="AUhPjbmYWU5Y2-8NlCF0-31" value="HTML" style="text;html=1;align=center;verticalAlign=middle;whiteSpace=wrap;rounded=0;dashed=1;dashPattern=1 4;" vertex="1" parent="1">
          <mxGeometry x="230" y="266.25" width="40" height="32.5" as="geometry" />
        </mxCell>
        <mxCell id="AUhPjbmYWU5Y2-8NlCF0-32" value="CSS" style="text;html=1;strokeColor=none;fillColor=none;align=center;verticalAlign=middle;whiteSpace=wrap;rounded=0;dashed=1;dashPattern=1 4;fontColor=#333333;" vertex="1" parent="1">
          <mxGeometry x="340" y="361.25" width="40" height="32.5" as="geometry" />
        </mxCell>
        <mxCell id="AUhPjbmYWU5Y2-8NlCF0-33" value="JS" style="text;html=1;strokeColor=none;fillColor=none;align=center;verticalAlign=middle;whiteSpace=wrap;rounded=0;dashed=1;dashPattern=1 4;fontColor=#333333;" vertex="1" parent="1">
          <mxGeometry x="340" y="438.33000000000004" width="40" height="32.5" as="geometry" />
        </mxCell>
        <mxCell id="AUhPjbmYWU5Y2-8NlCF0-34" value="@import" style="text;html=1;strokeColor=none;fillColor=none;align=center;verticalAlign=middle;whiteSpace=wrap;rounded=0;dashed=1;dashPattern=1 4;" vertex="1" parent="1">
          <mxGeometry x="450" y="531.25" width="40" height="32.5" as="geometry" />
        </mxCell>
        <mxCell id="AUhPjbmYWU5Y2-8NlCF0-35" value="Rendering blokeret" style="text;html=1;strokeColor=#b85450;fillColor=#f8cecc;align=center;verticalAlign=middle;whiteSpace=wrap;rounded=0;" vertex="1" parent="1">
          <mxGeometry x="464" y="421" width="145" height="53" as="geometry" />
        </mxCell>
      </root>
    </mxGraphModel>
  </diagram>
</mxfile>
